<svg width="4562" height="2659" viewBox="0 0 4562 2659" fill="none" xmlns="http://www.w3.org/2000/svg">
<path d="M1329.4 75C2022.2 75 2583.8 636.5 2583.8 1329.2C2583.8 2022 2022.2 2583.5 1329.4 2583.5C636.6 2583.5 75 2022 75 1329.2C75 636.5 636.6 75 1329.4 75Z" fill="#00A8FB" stroke="white" stroke-width="14.9"/>
<path d="M3232.5 75C3925.3 75 4486.9 636.5 4486.9 1329.2C4486.9 2022 3925.3 2583.5 3232.5 2583.5C2539.7 2583.5 1978.1 2022 1978.1 1329.2C1978.1 636.5 2539.7 75 3232.5 75Z" fill="#01E246" stroke="white" stroke-width="150"/>
<path opacity="0.5" d="M1329.4 75C2022.2 75 2583.8 636.5 2583.8 1329.2C2583.8 2022 2022.2 2583.5 1329.4 2583.5C636.6 2583.5 75 2022 75 1329.2C75 636.5 636.6 75 1329.4 75Z" fill="#00A8FB" stroke="white" stroke-width="150"/>
<path d="M1329.4 75C2022.2 75 2583.8 636.5 2583.8 1329.2C2583.8 2022 2022.2 2583.5 1329.4 2583.5C636.6 2583.5 75 2022 75 1329.2C75 636.5 636.6 75 1329.4 75V75Z" stroke="white" stroke-width="150"/>
<path fill-rule="evenodd" clip-rule="evenodd" d="M1227 1196.9C1236.8 1196.9 1244.53 1197.9 1250.2 1199.9C1255.73 1201.9 1259.93 1204.9 1262.8 1208.9C1268.4 1213.9 1271.2 1222 1271.2 1233C1271.2 1249.07 1267.7 1260.63 1260.7 1267.7C1252.3 1275.7 1240.37 1279.7 1224.9 1279.7H1206V1202.9C1206 1198.9 1208.8 1196.9 1214.4 1196.9H1227ZM1231.2 1139.6C1271.87 1139.6 1302.03 1147.63 1321.7 1163.7C1341.3 1179.77 1351.1 1203.87 1351.1 1236C1351.1 1269.13 1341.3 1294.23 1321.7 1311.3C1302 1328.4 1273.3 1336.9 1235.4 1336.9H1206V1454.4C1206 1461.47 1202.5 1467 1195.5 1471C1188.4 1475 1178.6 1477 1166 1477C1153.4 1477 1143.6 1475 1136.6 1471C1129.5 1467 1126.1 1461.5 1126.1 1454.4V1174.3C1126.1 1162.23 1130.3 1153.67 1138.7 1148.6C1147.1 1142.6 1158.3 1139.6 1172.3 1139.6H1231.2ZM1466.8 1312.8C1466.8 1327.93 1467.5 1342 1468.9 1355C1471.7 1370.07 1475.2 1382.63 1479.4 1392.7C1482.2 1400.77 1486.4 1406.8 1492 1410.8C1496.2 1413.8 1502.53 1415.3 1511 1415.3C1523.6 1415.3 1532 1408.27 1536.2 1394.2C1539 1381.13 1543.2 1372.6 1548.8 1368.6C1554.4 1364.6 1563.5 1362.6 1576.2 1362.6C1591.6 1362.6 1602.8 1365.1 1609.8 1370.1C1618.2 1375.1 1622.4 1382.13 1622.4 1391.2C1622.4 1398.2 1620.3 1405.73 1616.1 1413.8C1613.3 1422.8 1609.1 1430.83 1603.5 1437.9C1593.7 1450.9 1581.8 1460.43 1567.8 1466.5C1552.33 1473.5 1534.8 1477 1515.2 1477C1468.93 1477 1435.27 1463.97 1414.2 1437.9C1393.2 1410.77 1382.7 1369.07 1382.7 1312.8C1382.7 1252.6 1393.9 1207.43 1416.3 1177.3C1437.37 1147.17 1469.63 1132.1 1513.1 1132.1C1532.7 1132.1 1549.5 1135.1 1563.5 1141.1C1577.57 1146.17 1589.5 1154.7 1599.3 1166.7C1606.3 1174.77 1611.2 1182.8 1614 1190.8C1616.8 1199.87 1618.2 1207.9 1618.2 1214.9C1618.2 1223.97 1614 1231.5 1605.6 1237.5C1597.2 1242.57 1586.7 1245.1 1574.1 1245.1C1562.83 1245.1 1553.7 1242.57 1546.7 1237.5C1541.1 1231.5 1536.9 1224.47 1534.1 1216.4C1529.9 1200.33 1521.5 1192.3 1508.9 1192.3C1500.43 1192.3 1492.7 1196.33 1485.7 1204.4C1480.1 1210.4 1475.9 1219.93 1473.1 1233C1471.7 1243.07 1470.3 1255.63 1468.9 1270.7C1467.5 1285.77 1466.8 1299.8 1466.8 1312.8ZM2876 1392.7C2880.2 1383.63 2882.3 1371.07 2882.3 1355C2883.7 1348 2884.4 1340 2884.4 1330.9V1269.2C2884.4 1256.1 2883.7 1245.6 2882.3 1237.5C2880.9 1221.43 2876.7 1209.4 2869.7 1201.4C2864.03 1195.33 2856.33 1192.3 2846.6 1192.3C2831.1 1192.3 2821.3 1200.4 2817.1 1216.4C2815.7 1221.47 2814.3 1227 2812.9 1233C2811.5 1239 2810.8 1246.53 2810.8 1255.6C2809.4 1263.67 2808.7 1272.2 2808.7 1281.2V1341.5C2808.7 1354.57 2809.4 1365.1 2810.8 1373.1C2811.53 1377.3 2812.37 1381.17 2813.3 1384.7C2815.7 1382.6 2818.9 1381.4 2822.3 1381.4H2854.2C2861.9 1381.4 2868.2 1387.6 2868.2 1395.4V1409.1C2871.73 1405.03 2874.33 1399.57 2876 1392.7ZM2791.9 1466.5C2776.43 1460.5 2763.8 1450.47 2754 1436.4C2742.8 1420.3 2735.1 1401.7 2730.9 1380.6C2729.43 1370.6 2728.03 1358.57 2726.7 1344.5C2725.3 1330.43 2724.6 1317.37 2724.6 1305.3C2724.6 1286.2 2725.9 1268.2 2728.8 1251.1C2730.1 1233 2733 1217.9 2737.2 1205.9C2744.2 1181.77 2757.5 1163.7 2777.1 1151.7C2785.57 1144.63 2796.1 1140.1 2808.7 1138.1C2821.3 1135.1 2833.93 1133.6 2846.6 1133.6C2867.6 1133.6 2885.8 1137.1 2901.2 1144.1C2916.67 1151.17 2929.3 1161.23 2939.1 1174.3C2950.3 1190.37 2958 1208.93 2962.2 1230C2965 1241.07 2966.4 1253.1 2966.4 1266.1C2967.8 1280.2 2968.5 1293.3 2968.5 1305.3C2968.5 1324.4 2967.8 1342 2966.4 1358C2963.6 1377.1 2960.1 1392.7 2955.9 1404.7C2948.9 1427.9 2935.6 1445.9 2916 1459C2902.67 1467.8 2886.73 1473.37 2868.2 1475.7V1524.7C2868.2 1532.5 2861.9 1538.7 2854.2 1538.7H2822.3C2814.6 1538.7 2808.3 1532.5 2808.3 1524.7V1472.4C2802.5 1470.8 2797.03 1468.83 2791.9 1466.5ZM2974.4 1242C2974.4 1235 2977.9 1229.5 2984.9 1225.5C2990.5 1221.5 2999.7 1219.4 3012.3 1219.4C3024.9 1219.4 3034.7 1221.5 3041.7 1225.5C3047.3 1229.5 3050.1 1235 3050.1 1242V1370.1C3050.1 1383.17 3050.83 1393.2 3052.3 1400.2C3052.3 1407.3 3053.6 1411.8 3056.5 1413.8C3059.23 1416.8 3063.43 1418.3 3069.1 1418.3C3080.3 1418.3 3088.7 1411.27 3094.3 1397.2C3098.5 1387.2 3100.6 1375.17 3100.6 1361.1V1242C3100.6 1235 3104.1 1230 3111.1 1227C3118.1 1223 3127.23 1221 3138.5 1221C3151.1 1221 3160.9 1223 3167.9 1227C3173.5 1230 3176.3 1235 3176.3 1242V1446.9C3176.3 1458 3173.5 1465.5 3167.9 1469.5C3162.3 1473.5 3152.5 1475.5 3138.5 1475.5C3128.63 1475.5 3120.2 1474 3113.2 1471C3109 1469 3106.2 1465 3104.8 1459C3099.2 1465 3093.6 1469 3088 1471C3076.8 1475 3062.8 1477 3045.9 1477C3029.1 1477 3013.7 1472 2999.7 1462C2982.83 1449.93 2974.4 1423.8 2974.4 1383.6V1242ZM3331.6 1320.4C3337.2 1320.4 3340 1318.4 3340 1314.4C3340 1303.3 3337.2 1294.3 3331.6 1287.2C3325.93 1280.2 3317.5 1276.7 3306.3 1276.7C3295.1 1276.7 3286.7 1280.7 3281.1 1288.7C3275.5 1296.77 3272 1307.33 3270.6 1320.4H3331.6ZM3268.5 1371.6C3269.83 1387.67 3274.03 1400.23 3281.1 1409.3C3286.7 1417.3 3296.5 1421.3 3310.5 1421.3C3318.97 1421.3 3325.3 1419.8 3329.5 1416.8C3333.7 1413.8 3338.6 1407.77 3344.2 1398.7C3348.4 1388.7 3357.5 1383.7 3371.5 1383.7C3382.77 1383.7 3392.6 1386.2 3401 1391.2C3409.4 1396.2 3413.6 1402.23 3413.6 1409.3C3413.6 1419.3 3409.4 1429.33 3401 1439.4C3391.13 1452.47 3378.5 1462 3363.1 1468C3347.7 1474 3330.17 1477 3310.5 1477C3274.1 1477 3245.3 1466 3224.3 1443.9C3204.7 1421.8 3194.9 1390.2 3194.9 1349C3194.9 1308.8 3204.7 1277.7 3224.3 1255.6C3245.3 1232.53 3273.33 1221 3308.4 1221C3328.07 1221 3344.9 1224.5 3358.9 1231.5C3374.3 1239.57 3386.23 1250.6 3394.7 1264.6C3400.3 1273.67 3404.5 1283.73 3407.3 1294.8C3410.1 1306.87 3411.5 1317.9 3411.5 1327.9C3411.5 1342.97 3407.3 1354.03 3398.9 1361.1C3390.5 1368.1 3377.1 1371.6 3358.9 1371.6H3268.5ZM3638.3 1403.2C3638.3 1427.3 3629.1 1445.9 3610.9 1459C3592.7 1471 3567.47 1477 3535.2 1477C3517 1477 3501.57 1475.5 3488.9 1472.5C3477.7 1469.5 3466.5 1464.5 3455.3 1457.5C3439.8 1446.4 3432.2 1435.4 3432.2 1424.3C3432.2 1416.3 3436.4 1409.27 3444.8 1403.2C3453.2 1398.2 3463.7 1395.7 3476.3 1395.7C3487.5 1395.7 3497.33 1400.73 3505.8 1410.8C3511.4 1419.8 3520.5 1424.3 3533.1 1424.3C3541.5 1424.3 3548.5 1422.3 3554.1 1418.3C3559.7 1415.3 3562.6 1410.3 3562.6 1403.2C3562.6 1393.2 3553.4 1384.2 3535.2 1376.1C3522.6 1371.1 3507.87 1365.07 3491 1358C3472.8 1351 3458.8 1341.47 3449 1329.4C3440.6 1319.4 3436.4 1306.87 3436.4 1291.8C3436.4 1269.67 3445.5 1252.07 3463.7 1239C3481.9 1225 3506.43 1217.97 3537.3 1217.9C3549.9 1217.9 3562.53 1219.43 3575.2 1222.5C3586.4 1225.5 3596.2 1230 3604.6 1236C3620 1245.07 3627.73 1256.13 3627.8 1269.2C3627.73 1277.2 3624.2 1283.7 3617.2 1288.7C3608.8 1293.77 3598.3 1296.3 3585.7 1296.3C3575.9 1296.3 3566.77 1291.27 3558.3 1281.2C3552.7 1274.2 3545 1270.7 3535.2 1270.7C3518.4 1270.7 3510 1276.7 3510 1288.7C3510 1298.77 3518.4 1307.33 3535.2 1314.4C3545 1318.4 3555.53 1322.4 3566.8 1326.4C3593.4 1336.47 3611.6 1347 3621.4 1358C3632.67 1370.07 3638.3 1385.13 3638.3 1403.2ZM3705.2 1177.3C3705.2 1170.3 3708.6 1165.2 3715.7 1162.2C3722.7 1158.2 3732.5 1156.2 3745.1 1156.2C3757.7 1156.2 3767.5 1158.2 3774.6 1162.2C3778.8 1164.2 3780.9 1169.23 3780.9 1177.3V1225.5H3812.4C3823.6 1225.5 3832.03 1228.5 3837.7 1234.5C3841.9 1238.5 3844 1245.03 3844 1254.1C3844 1261.1 3841.1 1267.2 3835.6 1272.2C3829.93 1277.2 3822.2 1279.7 3812.4 1279.7H3780.9V1407.8C3780.9 1414.8 3785.1 1418.3 3793.5 1418.3C3797.7 1418.3 3801.9 1415.3 3806.1 1409.3C3811.7 1399.23 3820.13 1394.2 3831.4 1394.2C3842.6 1394.2 3853.1 1397.2 3862.9 1403.2C3871.3 1409.27 3875.5 1416.3 3875.5 1424.3C3875.5 1432.4 3870.6 1441.4 3860.8 1451.4C3852.4 1460.47 3842.6 1467 3831.4 1471C3818.73 1475 3804 1477 3787.2 1477C3773.13 1477 3759.8 1475 3747.2 1471C3736 1468 3726.9 1462.5 3719.9 1454.5C3715.7 1449.4 3712.2 1442.9 3709.4 1434.9C3706.5 1426.8 3705.2 1417.3 3705.2 1406.2V1279.7H3688.3C3677.1 1279.7 3669.4 1277.7 3665.2 1273.7C3659.6 1268.7 3656.8 1262.17 3656.8 1254.1C3656.8 1245.1 3659.6 1238.07 3665.2 1233C3670.8 1228 3678.5 1225.5 3688.3 1225.5H3705.2V1177.3Z" fill="black"/>
</svg>
